<svg width="53" height="24" viewBox="0 0 53 24" fill="none" xmlns="http://www.w3.org/2000/svg">
<rect x="0.5" y="0.5" width="52" height="23" rx="11.5" stroke="url(#paint0_linear)"/>
<path d="M9.05566 16.9998H10.6157V13.1718H15.0317V16.9998H16.6037V8.25184H15.0317V11.8998H10.6157V8.25184H9.05566V16.9998Z" fill="white"/>
<path d="M18.9639 12.6438C18.9639 15.4158 20.5359 17.1198 23.1519 17.1198C25.7679 17.1198 27.3399 15.4158 27.3399 12.6438C27.3399 9.84784 25.7319 8.14384 23.1519 8.14384C20.5599 8.14384 18.9639 9.84784 18.9639 12.6438ZM20.6199 13.2438V12.0078C20.6199 10.5198 21.5319 9.53584 23.1519 9.53584C24.6639 9.53584 25.6719 10.4238 25.6719 12.0078V13.2438C25.6719 14.7318 24.7719 15.7278 23.1519 15.7278C21.6399 15.7278 20.6199 14.8278 20.6199 13.2438Z" fill="white"/>
<path d="M30.8221 14.2758H29.2021C29.1901 15.8838 30.4501 17.1198 32.7541 17.1198C34.8301 17.1198 36.2341 16.1358 36.2341 14.3838C36.2341 13.1838 35.5981 12.2838 33.9541 11.9358L32.4181 11.6238C31.9381 11.5158 31.0621 11.3478 31.0621 10.5198C31.0621 9.83584 31.6141 9.37984 32.6221 9.37984C33.5941 9.37984 34.2781 9.83584 34.3261 10.7118H35.9461C35.9101 9.11584 34.5901 8.13184 32.6461 8.13184C30.7021 8.13184 29.3941 9.12784 29.3941 10.7238C29.3941 12.5598 31.1341 12.9198 31.9141 13.0998L33.3421 13.4118C33.7261 13.4958 34.5661 13.6638 34.5661 14.5638C34.5661 15.3798 33.8941 15.8598 32.8141 15.8598C31.6381 15.8598 30.8581 15.3198 30.8221 14.2758Z" fill="white"/>
<path d="M43.9936 8.25184H37.3456V9.63184H39.8776V16.9998H41.4496V9.63184H43.9936V8.25184Z" fill="white"/>
<defs>
<linearGradient id="paint0_linear" x1="64.7174" y1="18.5085" x2="-32.3738" y2="14.8608" gradientUnits="userSpaceOnUse">
<stop stop-color="#FFE580"/>
<stop offset="0.104807" stop-color="#FF7571"/>
<stop offset="0.267182" stop-color="#EA5DAD"/>
<stop offset="0.474012" stop-color="#C2A0FD"/>
<stop offset="0.71875" stop-color="#3BF0E4"/>
<stop offset="1" stop-color="#B2F4B6"/>
</linearGradient>
</defs>
</svg>
